<mxfile host="app.diagrams.net" agent="Mozilla/5.0 (Windows NT 10.0; Win64; x64) AppleWebKit/537.36 (KHTML, like Gecko) Chrome/131.0.0.0 Safari/537.36" version="25.0.3">
  <diagram name="Page-1" id="awl8mL9EecdNINCO3KNC">
    <mxGraphModel dx="1430" dy="757" grid="1" gridSize="10" guides="1" tooltips="1" connect="1" arrows="1" fold="1" page="1" pageScale="1" pageWidth="850" pageHeight="1100" math="0" shadow="0">
      <root>
        <mxCell id="0" />
        <mxCell id="1" parent="0" />
        <mxCell id="J9hn1jeJr_-hBfiavbm4-18" value="" style="rounded=1;whiteSpace=wrap;html=1;" vertex="1" parent="1">
          <mxGeometry x="270" y="258.95" width="120" height="120" as="geometry" />
        </mxCell>
        <mxCell id="J9hn1jeJr_-hBfiavbm4-24" style="edgeStyle=orthogonalEdgeStyle;rounded=0;orthogonalLoop=1;jettySize=auto;html=1;entryX=0;entryY=0.5;entryDx=0;entryDy=0;" edge="1" parent="1" source="J9hn1jeJr_-hBfiavbm4-1" target="J9hn1jeJr_-hBfiavbm4-18">
          <mxGeometry relative="1" as="geometry" />
        </mxCell>
        <mxCell id="J9hn1jeJr_-hBfiavbm4-1" value="" style="aspect=fixed;sketch=0;html=1;dashed=0;whitespace=wrap;verticalLabelPosition=bottom;verticalAlign=top;fillColor=#2875E2;strokeColor=#ffffff;points=[[0.005,0.63,0],[0.1,0.2,0],[0.9,0.2,0],[0.5,0,0],[0.995,0.63,0],[0.72,0.99,0],[0.5,1,0],[0.28,0.99,0]];shape=mxgraph.kubernetes.icon2;prIcon=user" vertex="1" parent="1">
          <mxGeometry x="150" y="295" width="50" height="48" as="geometry" />
        </mxCell>
        <mxCell id="J9hn1jeJr_-hBfiavbm4-3" value="" style="rounded=1;whiteSpace=wrap;html=1;" vertex="1" parent="1">
          <mxGeometry x="490" y="90" width="120" height="490" as="geometry" />
        </mxCell>
        <mxCell id="J9hn1jeJr_-hBfiavbm4-14" style="edgeStyle=orthogonalEdgeStyle;rounded=0;orthogonalLoop=1;jettySize=auto;html=1;" edge="1" parent="1" source="J9hn1jeJr_-hBfiavbm4-2" target="J9hn1jeJr_-hBfiavbm4-5">
          <mxGeometry relative="1" as="geometry" />
        </mxCell>
        <mxCell id="J9hn1jeJr_-hBfiavbm4-26" style="edgeStyle=orthogonalEdgeStyle;rounded=0;orthogonalLoop=1;jettySize=auto;html=1;startArrow=classic;startFill=1;strokeWidth=2;fillColor=#dae8fc;strokeColor=#6c8ebf;" edge="1" parent="1" source="J9hn1jeJr_-hBfiavbm4-2" target="J9hn1jeJr_-hBfiavbm4-7">
          <mxGeometry relative="1" as="geometry" />
        </mxCell>
        <mxCell id="J9hn1jeJr_-hBfiavbm4-27" style="edgeStyle=orthogonalEdgeStyle;rounded=0;orthogonalLoop=1;jettySize=auto;html=1;startArrow=classic;startFill=1;strokeWidth=2;fillColor=#dae8fc;strokeColor=#6c8ebf;" edge="1" parent="1" source="J9hn1jeJr_-hBfiavbm4-2" target="J9hn1jeJr_-hBfiavbm4-6">
          <mxGeometry relative="1" as="geometry" />
        </mxCell>
        <mxCell id="J9hn1jeJr_-hBfiavbm4-2" value="" style="shape=image;verticalLabelPosition=bottom;verticalAlign=top;imageAspect=0;aspect=fixed;image=data:image/png,iVBORw0KGgoAAAANSUhEUgAAAS0AAAFfCAYAAAFsDqqyAAAACXBIWXMAAAsSAAALEgHS3X78AAASs0lEQVR4nO3d3XHT2hrG8aUz3CtUAKeADNkVkF0BVCCCrjMDuwJCBScXvhaJKsiugKSChHEBsCsgrkBnFJbYQtiOXlmvvN6l/2+GmZAPe3n58WN9WUqqqnIh+k+Qo2JgAzAwKQYmNZ+BpYvlKI3NU1lL8vKo7+9ONjA/qNskL3s91ZMMrBlU/XVVZEmfv9lpYH2CPmRQOw+sp9shf6Q+sPYs9c2Xkw5saEcNGdxkr8pmcJOEXyq08A8iWhkZ632wsTo93DiDrCVJMTApBibFwKQYmBQDkwp2YE+G/mGSl9fuxzLWcfv/3p1z7qj9c7F66WLIP/f2smr+rvn6se9J/s03Y5LF6bbBGXOtNZ6hd771tlmCFWJgUmRMioFJMTApBiY1j4GNuf2Mp1Jqyn1Jldp2/qEkAxplYD33Jf38nWA2pyd5edF8LV0vUB1YVWQnzrlLN+DpVN+XNHRwvQeWLpbDVvU7g+trp/XKAYM76fv79ldGxt6P5NiXNDIGJsXApBiYFAOTYmBSce1LSvKyWba6rorszHX2JdX7j/z/r6oiOx80soH7kc66+5E27Tfa274kjb0iboyMtVfR1pl8X1JrjefL0NvYevsswQoxMKlgMxaqYJ/JUDFhQkyYEBMmxIQJMWFCTJhQ0BOWLpb36WJ5FsBQfgo9Yalz7kMA4/iJl6TQZPsCpzT0g5x9RJWweqL8Bp7b1vdGXVmOImHtRLVpbEfc24Q1O6+37XB+zJQT1TD9kqyK7G7dARxjvwzb1CYsXSx7nwBhF/WBJT5Rv0yc9Pi0vlQmzB/2c6txzMgm2yZuzPuJbrGiOZSp3j/jvx5VtAuuGpPlWNKXU9kJMmV3DTV0cYa9RkK8JIWYMCEmTIgJE2LChJgwISZMiAkTYsKEmDAhJkyICROadANikpdnm/ZkNzsutmwhvfHH2q/7+dOqyO5HHewGe9ni2t2rk+Tl63oi6u93J27dHqDOKVrrHSHf6y+nGHsQm6irIrtK8rL373dTprlbrSuICfMT0PujCFNOUBcbEIV4lxRiwoSYMCEmTIjSFyBdAkyWAJMlwGQJMFkCTJYAkyXAZAkwWQJMlgCTJcBkCTBZAkyWAJMlwGQJBDtZ6WJ5ENqx+iEnq94LXU/at/0P5QcLL8NnAYzhAZ0lwGQJRDtZSV4ejH2bUU6WPwDl+9gTFt1kdQ5VGnXCYjsJx7rlstdj3X40k7Vhot5WRbb1nLkSUUzWFBPl9nVEYGs15nJ1erjTh8unmigXQLLe7PLHU06Ui3TR4Urrhq2f/2bdAbqjL181zCdrygnTPFHQ4EteSU01YVonCaqL93O6WF73+PVRTDFhURX8hgkbds2NNaJ7N+xM2OWYJwmKcqtDc86usc+mxGmnBNhSKsBkCTBZAqN/wsIvW71UHveuPq5OD8VnJ9dIVugT5STXnG3jszsCdJYAkyXAZAkwWQJMlgCTJcBkCTBZAkyWAJMlwGQJMFkCTJYAkyXAZAkwWQJMlgCTJcBkCTBZAkyWAJMlwGQJMFkCTJbA1KdB7x5jelYV2fWWn//kT4He/vl9VWSjfYipj6k/jtI9DuKzP5P3H/6aro8dJ/HLz7edJl3DPj6787Eqsp9HsNRX0vRXCk4654GvNk1C9/cmGPODvXdWczjjLg86yctJjrk3XfD+KgSu3XuaTF4ot5PCP6a635Am6+++v7ivKxDs/WXYekebdDFgiH0k60OSl79ccmaf16qQ4DBJAVZ3BJgsASZLgMkSYLIEmCwBJkuAyRJgoRRqeCVCDeGCGsIFNYQLaggX1BAuqCFcUEO4oIZwQQ3hghrCBTWEC2oIF9QQLqghXFBDuKDG5Kfu9m3N9cPfrk4PVa7/ZhnNNY5PMTyIsREuqCFcUEO4oIYFekOSvDzyZ/6pPa2K7D7k0RMuAzqhanz35+QKNmSEK2AbQtX1ELIQz95CuALUM1SNt1WRBbmNjXAFJJZQNWYXrnSxvHLOvRp6oVcNsYWqMatzRazZbeNWp4fiZZWxbifWUDV4W9yDJC+fO+e+9rznv6oiO7f4ONmIugdVkX3za3eXPe79f/WJT5O8PLD2OAnXHtVn+BaE7Lu1kBGuAMQaMlPLXOliWW+JTpv/D1mIDpm/VsGJv8DDm0eGGvwWejPNlS6Wx+1g+e9Nch2DqQ1pshAfB2+LAesZsstQT9zPpggDNrxdXjaX/AkV4TKkCZmVEfO2CDWEC2oIF9SY2XHdOpoBw0x+FIiJcK07CgHDTLnh2crb4tMAxmDe1Hs0uPYP1LBADzWEC2oIF9QQLqghXFBDuKCGcEEN4YIawgU1hAtqCBfUEC6oIVxQQ7ighnBBDeGCGsIFNYQLaggX1BAuqCFcUEO4oIZwQQ3hghrCBTXRnvwtycv6pBsfev76P1WRPV9zG0M+jn5TFVl9/lbJ3wd/7cQh5nJmwY9Vkf12hhd/uu1vzrlnrSD8fKLXnWu0HRjJuUg33NbDfYd8WbtdzPptsQ5RVWQHnSe1fqInOTWkb8svzf+TvDye4n6nwjKX1wnYpwnv+kVrDFGd+pwT7k4kyct2cJ77t8O2/8b2mAnXdF527unGOfe+KrK7WB8w4fKGLqj3FdvCeh+zDZdfeL7ovj3NMQRa5hKuD0lebtrmVa+tHce4nWnfOG0l1LApAmoIF9QQLqghXFBDuKCGcEEN4YIawgU1bESFCloLKggWVBAsqCBYUEGwoIJgQQXBggqCBRUECyoIFlQQLKggWFBBsKCCYEEFwYIKggUVBAsqCBZUECyoIFhQQbCggmBBBcGCCoIFFQQLKggWVBAsqCBYUEGwoIJgQQXBggqCBRUECyq4WtgA6WJ57px7V1+TenV6+Ns1qcGpIsXSxfK3i6GvTg+5ulgHb4Vyfa+wP2sECyoIFlQQLKggWFBBsKCCYEEFwYIKgmVMkpfXFkZMsAxJ8vLeOfcyycu70EdNsIzwoUr9aF+EHi6CZUAnVI2gw0WwArchVI1gw0WwAvZIqBpBhotgBapnqB5URXYU2qMgWAEShirIY8EIVmBiCJUjWGGJJVSOYIUjplC5uX2YIl0sj51zn+sPQTjnjlanh/cBDCu6ULk5NVa6WD73oao9c8593/OQHsQYKjezt8KL7jd8g+1NrKFyLGPtT8yhcgRrP2IPlSNY+1EV2UHfO7ZwiMw6BGtPBE0U/CEy6xCsPYo5XARrz2INF8EKQIzhIliBiC1c5oJVb9T0W9GjE1O4zASrDlO6WFZ+t8zXdLE0uRr+mFjCZamxvnb+/2JP41AXQ7hYxgqU9XARrID1DRfHvEPssXBxzDsG2xQejnnHzroh4ph3jKYJk4VDaQiWMRzzjlkjWFBBsKCCYEEFwYIKggUVBAsqTFyvMF0sD0L5SLxRk1+w00pjEardPPMHSU4m+GDt+/wKGMZCY30LYAwQCj5Yq9PDOlhfAhiKdZdTjp+LjUMFmxuggmBBBcGCCoIFFQQLKggWVBAsqCBYUEGwoIJgQQXBggqCBRUECyoIFlQQLKggWFBBsKCCYEEFwYIKggUVBAsqCBZUECyoIFhQQbCggmBBBcGCCoIFFQQLKggWVBAsqCBYUEGwoIJgQQXBggqCBRUECyoIFlQQLKggWFBBsKCCYEEFwYIKggUVBAsqCBZUECyoIFhQQbCggmBBBcGCiiexTmuSl9eP/Mp1VWRnO/z9WlWRHfu/P3HOnWy6b3//g+7DgmiD5Zx7+djPk7z84L9+WxXZhfDvH/N8y23U3/+Q5GX99d9Vkb3e8b6Cw1vhD5+SvLzf032/2uN9q4m5sX6qiixZ933/dvXJ/zetn+CqyA7c9r+p/Jc3zdteDx+7b7tr7vs4prfGWTdW/fbXCVDqn/BJ7rsOXOtb3bdi03gr/OHP1teftv3imDot9myq+50CwfrxBEe7drYvBOtfN81XSV5u3AwxpiQv37du7p8p7nMqBOtf7dbqu1A+WJKX9eaI/7X+fpJlu6nMYq0wACf1Wl9rGN3tW6vY3o4J1np3I9/esy0L51+qIjsa+f72jmD9q728c6V8Xyvn3Pm2XUrWEax/pc1XCm9Lv20gjR0L77/vcF7tcSjRmH2wkry8aC9MN7t0sJtZvhUmeXnkV+/fdX7054Y/gdAsgtXacbzNH1WRjb02OFssvDv3V1Vk5wGMIypJVfV5MQMys194hw6CBRUECyoIFlQQLKggWFBBsKCCYEEFwYIKggUVBAsqCBZUECyoIFhQQbCggmBBBcGCCo4gBWAK74YATKG0AJhCaQEwhdICYAqlBcAUSguAKZQWAFMoLQCmUFoATKG0AJhCaQEwhdICYAqlBcAUSguAKZQWAFMoLQCmUFoATKG0AJhCaQEwhdICYAqlBcAUSguAKZQWAFMoLQCmUFoATKG0AJhCaQEwhdICYAqlBcAUSguAKZQWAFMoLQCmUFqYXLpYHqWL5XNmHkMkVVUxcVCVLpYHzrlr59yLDfdzuTo9POFZQB8saWEK37YUVu1Nulhe8UygD0oLU0h73Mcrngn0QWkBMIXSAmAKpQXAFEoLgCmUFgBTKC0AplBaAEx5wtMF6Ejy8sh/EqA+Tu2Lc+64KrJ7pns3lBYwsk5ZNepPBHxP8pLy2hGlBYxkQ1l1UV47orSAHfUsqy7KayBKCxhoYFl1UV5ClBYgNFJZddXl9do5d8HzsR2lBfSkVFa1t1WRUVY9UVrAIyirsFBawAaUVZgoLaCDsgobpQV4lJUNlFak0sWyvlDEpw2P7mH3+ur0kN3rlJU5lFaE0sXy3Dn3bssjezg2KF0sn865uCgrmyitOB31fFTNi3ZWKCvbKC3MBmUVB86nhTl5r1BY9fZBrtk4IUoLs1EV2UlVZEl9ResRH3Pz2cG7JC8PSJM+SguzQ3nZRmlhtigvmygtzB7lZQulBXiUlw2UFtBBeYWN47SUpItlfUxQfWT6y8491C+E93yEJnx1eTnnTpK8rI/BejPSgDlT6Y5Y0lKQLpb1cTu3awrL+fB/958NhAEseYWF0hqZX8J61eNWKS1jKK8wUFrjI3iRUyyv87nPbR9s0wIGGnGb16W/LfRAaQE72qG8KKsBKC1gJILyoqx2QGkBI9tSXpTVCCgtQEmrvE4439Z42HsIKKOwxkVpATCF0gJgCqUFwBRKC4AplBYAUygtAKZQWgBMSaqq4hkbQbpYPnfO3SlcVw+Q+rI6Pex7lXFzKK0R+HNo3Zp/IIjJanV6GOVpklg9HAfn0EJool3ip7RGsDo9vHbO3Zh/IIjJx1ifTVYPR5QulvUS13vn3Gt/JkpgSvUb58Xq9DDqzzpSWgBMYfUQgCmUFgBTKC0AplBaAEyhtACYQmkBMIXSAmAKpQXAFEoLgCmUFgBTKC0AplBaAEyhtACYQmkBMIXSAmAKpQXAFEoLgCmUFgBTKC0AplBaAEyhtACYQmkBMIXSAmAKpQXAFEoLgCmUFgBTKC0AplBaAEyhtACYQmkBMIXSAmAKpQXAFEoLgCmUFgBTKC0AplBaAEyhtACYQmkBMIXSAmAKpQXAFEoLgCmUFgBTKC0AplBaAEyhtACYQmkBMIXSAmAKpQXAFEoLgCmUFgBTKC0Apjzh6bIlycsz59yHEQf9t3Puqiqyi75/kORlNeGk3VRFdty5/zHmYFU/bufceVVkdzveFiZEaeFV/S/Jy09+Jm6cc6+rIruPfGZS59yb+l+Sl86X2DEFFj5KKx6Xzrk+S0tH/t9r/8Lteumc+57k5bYX8Z+CWfu85ntfnHPve/69pDw/VkV2tu4HSV42j/vEP8auei5uk7z8bckOYaG04vGtKrLrHo/ml99J8vLAryZ1X8gbX8Q976e5/XXfvpfcxhh8+d41xe5L7HbNTb9M8vKiKrKTKceH/tgQP3P1aqAvpad+CairfhF/i22WfIk93fDjNxMPBwKUFh748jryG+a7niV5eRXbTPntdjfrfpbkJauIgaK08IuqyF5vmJFXkb6Q123fEq0CY1qUFtb5uOH70ZRWkpfPk7zctJH/cuLhQIAN8ZAwXVp1Ufm9lu+2/NoNG+HDRmkhJh+SvBx60CnHaRlBaWGdTUtUsW3n+cc5dyb5NAD2j9LCL/zG9rUbp+uPvAQ+WxsPLkU82BCPn/w2n3VHsNfezuCjPTCA0sKD+ihw59zXDbPxF6tQCAWrhzPmVwXrVb4XG2aBjdMIDqUVj132nHXVZXVSFVl0R8HDPkoLjZU/txQbshE0Ssueb5s+Lydw7W/nuioy7Q9Drxvrrqubm+Ygug9243dJVU15EkoA2A17DwGYQmkBMIXSAmAKpQXAFEoLgCmUFgBTKC0AplBaAEyhtACYQmkBMIXSAmAKpQXAFEoLgCmUFgBTKC0AplBaAOxwzv0fBLmIuV9uQ7kAAAAASUVORK5CYII=;imageBorder=none;" vertex="1" parent="1">
          <mxGeometry x="502.83000000000004" y="263.95" width="94.33" height="110" as="geometry" />
        </mxCell>
        <mxCell id="J9hn1jeJr_-hBfiavbm4-4" value="Reverse Proxy" style="sketch=0;pointerEvents=1;shadow=0;dashed=0;html=1;strokeColor=none;fillColor=#505050;labelPosition=center;verticalLabelPosition=bottom;verticalAlign=top;outlineConnect=0;align=center;shape=mxgraph.office.servers.reverse_proxy;" vertex="1" parent="1">
          <mxGeometry x="307.18" y="284" width="45.64" height="59" as="geometry" />
        </mxCell>
        <mxCell id="J9hn1jeJr_-hBfiavbm4-5" value="DTP DB" style="html=1;verticalLabelPosition=bottom;align=center;labelBackgroundColor=#ffffff;verticalAlign=top;strokeWidth=2;strokeColor=#0080F0;shadow=0;dashed=0;shape=mxgraph.ios7.icons.data;" vertex="1" parent="1">
          <mxGeometry x="673" y="289.4" width="44" height="59.1" as="geometry" />
        </mxCell>
        <mxCell id="J9hn1jeJr_-hBfiavbm4-15" style="edgeStyle=orthogonalEdgeStyle;rounded=0;orthogonalLoop=1;jettySize=auto;html=1;" edge="1" parent="1" source="J9hn1jeJr_-hBfiavbm4-6" target="J9hn1jeJr_-hBfiavbm4-9">
          <mxGeometry relative="1" as="geometry" />
        </mxCell>
        <mxCell id="J9hn1jeJr_-hBfiavbm4-6" value="Extension&lt;div&gt;Designer&lt;/div&gt;" style="image;aspect=fixed;html=1;points=[];align=center;fontSize=12;image=img/lib/azure2/compute/App_Services.svg;" vertex="1" parent="1">
          <mxGeometry x="525" y="470" width="50" height="50" as="geometry" />
        </mxCell>
        <mxCell id="J9hn1jeJr_-hBfiavbm4-7" value="Data Collector" style="image;aspect=fixed;html=1;points=[];align=center;fontSize=12;image=img/lib/azure2/other/Data_Collection_Rules.svg;labelPosition=center;verticalLabelPosition=top;verticalAlign=bottom;" vertex="1" parent="1">
          <mxGeometry x="520.62" y="110" width="58.76" height="60" as="geometry" />
        </mxCell>
        <mxCell id="J9hn1jeJr_-hBfiavbm4-9" value="Mongo DB" style="shape=image;verticalLabelPosition=bottom;verticalAlign=top;imageAspect=0;image=data:image/svg+xml,PHN2ZyB4bWxucz0iaHR0cDovL3d3dy53My5vcmcvMjAwMC9zdmciIHZpZXdCb3g9IjAgMCAxMDI0IDEwMjQiIGhlaWdodD0iODAwcHgiIHdpZHRoPSI4MDBweCI+JiN4YTsgICA8Y2lyY2xlIHN0eWxlPSJmaWxsOiMxM2FhNTIiIHI9IjUxMiIgY3k9IjUxMiIgY3g9IjUxMiIvPiYjeGE7ICAgPHBhdGggc3R5bGU9ImZpbGw6I2ZmZiIgZD0iTTY0OC44NiA0NDkuNDRjLTMyLjM0LTE0Mi43My0xMDguNzctMTg5LjY2LTExNy0yMDcuNTktOS0xMi42NS0xOC4xMi0zNS4xNS0xOC4xMi0zNS4xNS0uMTUtLjM4LS4zOS0xLjA1LS42Ny0xLjctLjkzIDEyLjY1LTEuNDEgMTcuNTMtMTMuMzcgMzAuMjktMTguNTIgMTQuNDgtMTEzLjU0IDk0LjIxLTEyMS4yNyAyNTYuMzctNy4yMSAxNTEuMjQgMTA5LjI1IDI0MS4zNiAxMjUgMjUyLjg1bDEuNzkgMS4yN3YtLjExYy4xLjc2IDUgMzYgOC40NCA3My4zNEg1MjZhNzI2LjY4IDcyNi42OCAwIDAgMSAxMy03OC41M2wxLS42NWEyMDQuNDggMjA0LjQ4IDAgMCAwIDIwLjExLTE2LjQ1bC43Mi0uNjVjMzMuNDgtMzAuOTMgOTMuNjctMTAyLjQ3IDkzLjA4LTIxNi41M2EzNDcuMDcgMzQ3LjA3IDAgMCAwLTUuMDUtNTYuNzZ6TTUxMi4zNSA2NTkuMTJzMC0yMTIuMTIgNy0yMTIuMDhjNS40NiAwIDEyLjUzIDI3My42MSAxMi41MyAyNzMuNjEtOS43Mi0xLjE3LTE5LjUzLTQ1LjAzLTE5LjUzLTYxLjUzeiIvPiYjeGE7PC9zdmc+;" vertex="1" parent="1">
          <mxGeometry x="673" y="470" width="50" height="50" as="geometry" />
        </mxCell>
        <mxCell id="J9hn1jeJr_-hBfiavbm4-19" style="edgeStyle=orthogonalEdgeStyle;rounded=0;orthogonalLoop=1;jettySize=auto;html=1;entryX=-0.005;entryY=0.493;entryDx=0;entryDy=0;entryPerimeter=0;" edge="1" parent="1" source="J9hn1jeJr_-hBfiavbm4-18" target="J9hn1jeJr_-hBfiavbm4-7">
          <mxGeometry relative="1" as="geometry">
            <Array as="points">
              <mxPoint x="430" y="319" />
              <mxPoint x="430" y="140" />
            </Array>
          </mxGeometry>
        </mxCell>
        <mxCell id="J9hn1jeJr_-hBfiavbm4-22" style="edgeStyle=orthogonalEdgeStyle;rounded=0;orthogonalLoop=1;jettySize=auto;html=1;entryX=0.003;entryY=0.591;entryDx=0;entryDy=0;entryPerimeter=0;" edge="1" parent="1" source="J9hn1jeJr_-hBfiavbm4-18" target="J9hn1jeJr_-hBfiavbm4-6">
          <mxGeometry relative="1" as="geometry">
            <Array as="points">
              <mxPoint x="430" y="319" />
              <mxPoint x="430" y="500" />
            </Array>
          </mxGeometry>
        </mxCell>
        <mxCell id="J9hn1jeJr_-hBfiavbm4-21" style="edgeStyle=orthogonalEdgeStyle;rounded=0;orthogonalLoop=1;jettySize=auto;html=1;" edge="1" parent="1" source="J9hn1jeJr_-hBfiavbm4-18" target="J9hn1jeJr_-hBfiavbm4-2">
          <mxGeometry relative="1" as="geometry" />
        </mxCell>
        <mxCell id="J9hn1jeJr_-hBfiavbm4-25" style="edgeStyle=orthogonalEdgeStyle;rounded=0;orthogonalLoop=1;jettySize=auto;html=1;entryX=0.5;entryY=0;entryDx=0;entryDy=0;entryPerimeter=0;" edge="1" parent="1" source="J9hn1jeJr_-hBfiavbm4-3" target="J9hn1jeJr_-hBfiavbm4-1">
          <mxGeometry relative="1" as="geometry">
            <Array as="points">
              <mxPoint x="550" y="70" />
              <mxPoint x="175" y="70" />
            </Array>
          </mxGeometry>
        </mxCell>
      </root>
    </mxGraphModel>
  </diagram>
</mxfile>
